# Blender 5.0.1
# www.blender.org
mtllib table.mtl
o Circle
v -0.040342 0.580000 -1.447982
v -0.650500 0.580000 -1.679563
v -0.040342 0.580000 1.447982
v -0.650500 0.580000 1.679563
v 0.667633 0.580000 0.000000
v 0.588234 0.580000 -0.707450
v 0.588234 0.580000 0.707450
v 0.383120 0.580000 -1.147190
v 0.667633 0.580000 0.419891
v 0.667633 0.580000 -0.419891
v 0.383120 0.580000 1.147190
v -0.452003 0.580000 0.000000
v -0.650500 0.580000 0.409703
v -0.650500 0.580000 -0.409703
v -0.498319 0.580000 -0.204852
v -0.498319 0.580000 0.204852
v -0.558284 0.580000 1.545928
v -0.084111 0.580000 1.365959
v -0.084111 0.580000 -1.365959
v -0.558284 0.580000 -1.545928
v 0.309849 0.580000 -1.086122
v -0.558284 0.580000 0.440208
v 0.575416 0.580000 0.407393
v 0.575416 0.580000 0.000000
v 0.575416 0.580000 -0.407393
v 0.501398 0.580000 -0.675464
v 0.309849 0.580000 1.086122
v 0.501398 0.580000 0.675464
v -0.412671 0.580000 -0.244198
v -0.357458 0.580000 0.000000
v -0.412671 0.580000 0.244198
v -0.558284 0.580000 -0.440208
v -0.040342 0.668149 -1.447982
v -0.650500 0.668149 -1.679563
v -0.040342 0.668149 1.447982
v -0.650500 0.668149 1.679563
v 0.667633 0.668149 0.000000
v 0.588234 0.668149 -0.707450
v 0.588234 0.668149 0.707450
v 0.383120 0.668149 -1.147190
v 0.667633 0.668149 0.419891
v 0.667633 0.668149 -0.419891
v 0.383120 0.668149 1.147190
v -0.452003 0.668149 0.000000
v -0.650500 0.668149 0.409703
v -0.650500 0.668149 -0.409703
v -0.498319 0.668149 -0.204852
v -0.498319 0.668149 0.204852
v -0.558284 0.657960 1.545928
v -0.084111 0.657960 1.365959
v -0.084111 0.657960 -1.365959
v -0.558284 0.657960 -1.545928
v 0.309849 0.657960 -1.086122
v -0.558284 0.657960 0.440208
v 0.575416 0.657960 0.407393
v 0.575416 0.657960 0.000000
v 0.575416 0.657960 -0.407393
v 0.501398 0.657960 -0.675464
v 0.309849 0.657960 1.086122
v 0.501398 0.657960 0.675464
v -0.412671 0.636877 -0.244198
v -0.357458 0.636877 0.000000
v -0.412671 0.636877 0.244198
v -0.558284 0.657960 -0.440208
v -0.558284 0.615334 1.545928
v -0.084111 0.615334 1.365959
v -0.084111 0.615334 -1.365959
v -0.558284 0.615334 -1.545928
v 0.309849 0.615334 -1.086122
v -0.558284 0.615334 0.440208
v 0.575416 0.615334 0.407393
v 0.575416 0.615334 0.000000
v 0.575416 0.615334 -0.407393
v 0.501398 0.615334 -0.675464
v 0.309849 0.615334 1.086122
v 0.501398 0.615334 0.675464
v -0.412671 0.615334 -0.244198
v -0.357458 0.615334 0.000000
v -0.412671 0.615334 0.244198
v -0.558284 0.615334 -0.440208
v -0.558284 0.580000 -1.545928
v 0.575416 0.580000 -0.407393
v 0.588234 -0.031851 -0.707450
v 0.667633 -0.031851 -0.419891
v 0.501398 -0.031851 -0.675464
v 0.575416 -0.031851 -0.407393
v 0.588234 -0.031851 0.707450
v 0.667633 -0.031851 0.419891
v 0.575416 -0.031851 0.407393
v 0.501398 -0.031851 0.675464
v -0.650500 -0.031851 -1.679563
v -0.650500 -0.031851 1.679563
v -0.650500 -0.031851 0.409703
v -0.650500 -0.031851 -0.409703
v -0.558284 -0.031851 1.545928
v -0.558284 -0.031851 0.440208
v -0.558284 -0.031851 -0.440208
v -0.558284 -0.031851 -1.545928
vn -0.0000 -1.0000 -0.0000
vn 0.8231 -0.0000 0.5680
vn -0.3456 -0.0000 0.9384
vn 0.8027 -0.0000 -0.5963
vn -0.0390 0.9940 -0.1027
vn -0.0390 0.9940 0.1027
vn -0.0636 0.9940 0.0895
vn 0.1098 0.9940 -0.0000
vn -0.1098 0.9940 -0.0000
vn -0.1059 0.9940 0.0292
vn -0.0995 0.9940 -0.0464
vn -0.0995 0.9940 0.0464
vn -0.1059 0.9940 -0.0292
vn -0.0636 0.9940 -0.0895
vn 0.3132 0.9470 -0.0708
vn 0.1920 0.9772 0.0912
vn 0.1920 0.9772 -0.0912
vn 0.3132 0.9470 0.0708
vn -0.8027 -0.0000 -0.5963
vn 0.9639 -0.0000 -0.2662
vn -1.0000 -0.0000 -0.0000
vn 0.9063 -0.0000 0.4227
vn -0.8027 -0.0000 0.5963
vn 0.9063 -0.0000 -0.4227
vn 0.3548 -0.0000 0.9349
vn -0.9754 -0.0000 -0.2205
vn 0.9639 -0.0000 0.2662
vn 0.3548 -0.0000 -0.9349
vn 1.0000 -0.0000 -0.0000
vn 0.5791 -0.0000 -0.8153
vn 0.5791 -0.0000 0.8153
vn -0.9754 -0.0000 0.2205
vn -0.0000 1.0000 -0.0000
vn -0.9063 -0.0000 0.4227
vn -0.3548 -0.0000 -0.9349
vn 0.9754 -0.0000 0.2205
vn -0.9639 -0.0000 -0.2662
vn -0.3548 -0.0000 0.9349
vn -0.5791 -0.0000 0.8153
vn -0.5791 -0.0000 -0.8153
vn 0.9754 -0.0000 -0.2205
vn 0.8027 -0.0000 0.5963
vn -0.9639 -0.0000 0.2662
vn -0.9063 -0.0000 -0.4227
vn 0.1343 -0.0000 0.9909
vn -0.3456 -0.0000 -0.9384
vn 0.1343 -0.0000 -0.9909
vn 0.3141 -0.0000 -0.9494
vn 0.8231 -0.0000 -0.5680
vn 0.3141 -0.0000 0.9494
vt 0.136607 0.023253
vt 0.072506 0.259936
vt 0.120428 0.366684
vt 0.131746 0.500000
vt 0.120428 0.633316
vt 0.072506 0.740064
vt 0.136607 0.976747
vt 0.849764 0.965443
vt 0.941908 0.860110
vt 0.942008 0.734105
vt 0.945903 0.627915
vt 0.938598 0.500000
vt 0.945903 0.372085
vt 0.942008 0.265895
vt 0.941909 0.139890
vt 0.849764 0.034557
vt 1.000000 0.000000
vt 0.000000 0.000000
vt 1.000000 0.500000
vt 1.000000 0.375000
vt 1.000000 0.250000
vt 1.000000 0.125000
vt 1.000000 0.625000
vt 0.000000 0.500000
vt 0.000000 0.625000
vt 0.000000 0.250000
vt 0.000000 0.375000
vt 0.000000 0.750000
vt 1.000000 1.000000
vt 0.000000 1.000000
vt 1.000000 0.875000
vt 1.000000 0.750000
s 0
usemtl Material.002
f 17/1/1 22/2/1 31/3/1 30/4/1 29/5/1 32/6/1 20/7/1 19/8/1 21/9/1 26/10/1 25/11/1 24/12/1 23/13/1 28/14/1 27/15/1 18/16/1
f 18/16/1 3/17/1 4/18/1 17/1/1
f 17/1/2 4/18/2 92/18/2 95/1/2
f 24/12/1 5/19/1 9/20/1 23/13/1
f 28/14/1 7/21/1 11/22/1 27/15/1
f 7/21/3 28/14/3 90/14/3 87/21/3
f 25/11/1 10/23/1 5/19/1 24/12/1
f 27/15/1 11/22/1 3/17/1 18/16/1
f 30/4/1 12/24/1 15/25/1 29/5/1
f 22/2/1 13/26/1 16/27/1 31/3/1
f 29/5/1 15/25/1 14/28/1 32/6/1
f 31/3/1 16/27/1 12/24/1 30/4/1
f 64/6/4 61/5/4 77/5/4 80/6/4
f 50/16/5 49/1/5 36/18/5 35/17/5
f 52/7/6 51/8/6 33/29/6 34/30/6
f 51/8/7 53/9/7 40/31/7 33/29/7
f 49/1/8 54/2/8 45/26/8 36/18/8
f 56/12/9 55/13/9 41/20/9 37/19/9
f 58/10/10 57/11/10 42/23/10 38/32/10
f 60/14/11 59/15/11 43/22/11 39/21/11
f 53/9/12 58/10/12 38/32/12 40/31/12
f 55/13/13 60/14/13 39/21/13 41/20/13
f 57/11/9 56/12/9 37/19/9 42/23/9
f 59/15/14 50/16/14 35/17/14 43/22/14
f 62/4/15 61/5/15 47/25/15 44/24/15
f 54/2/16 63/3/16 48/27/16 45/26/16
f 64/6/8 52/7/8 34/30/8 46/28/8
f 61/5/17 64/6/17 46/28/17 47/25/17
f 63/3/18 62/4/18 44/24/18 48/27/18
f 16/27/19 13/26/19 45/26/19 48/27/19
f 10/23/20 6/32/20 38/32/20 42/23/20
f 2/30/21 14/28/21 46/28/21 34/30/21
f 11/22/22 7/21/22 39/21/22 43/22/22
f 14/28/23 15/25/23 47/25/23 46/28/23
f 6/32/24 8/31/24 40/31/24 38/32/24
f 4/18/25 3/17/25 35/17/25 36/18/25
f 12/24/26 16/27/26 48/27/26 44/24/26
f 7/21/27 9/20/27 41/20/27 39/21/27
f 1/29/28 2/30/28 34/30/28 33/29/28
f 5/19/29 10/23/29 42/23/29 37/19/29
f 8/31/30 1/29/30 33/29/30 40/31/30
f 3/17/31 11/22/31 43/22/31 35/17/31
f 13/26/21 4/18/21 36/18/21 45/26/21
f 15/25/32 12/24/32 44/24/32 47/25/32
f 9/20/29 5/19/29 37/19/29 41/20/29
f 65/1/33 66/16/33 75/15/33 76/14/33 71/13/33 72/12/33 73/11/33 74/10/33 69/9/33 67/8/33 68/7/33 80/6/33 77/5/33 78/4/33 79/3/33 70/2/33
f 58/10/34 53/9/34 69/9/34 74/10/34
f 49/1/35 50/16/35 66/16/35 65/1/35
f 62/4/36 63/3/36 79/3/36 78/4/36
f 60/14/37 55/13/37 71/13/37 76/14/37
f 51/8/38 52/7/38 68/7/38 67/8/38
f 56/12/21 57/11/21 73/11/21 72/12/21
f 53/9/39 51/8/39 67/8/39 69/9/39
f 50/16/40 59/15/40 75/15/40 66/16/40
f 54/2/29 49/1/29 65/1/29 70/2/29
f 61/5/41 62/4/41 78/4/41 77/5/41
f 55/13/21 56/12/21 72/12/21 71/13/21
f 63/3/42 54/2/42 70/2/42 79/3/42
f 57/11/43 58/10/43 74/10/43 73/11/43
f 52/7/29 64/6/29 80/6/29 68/7/29
f 59/15/44 60/14/44 76/14/44 75/15/44
f 81/18/29 32/18/29 97/18/29 98/18/29
f 2/30/1 1/29/1 19/18/1 81/18/1
f 19/18/1 1/29/1 8/31/1 21/9/1
f 21/9/1 8/31/1 6/32/1 26/10/1
f 10/18/45 82/18/45 86/18/45 84/18/45
f 83/32/1 84/23/1 86/18/1 85/10/1
f 6/32/20 10/23/20 84/23/20 83/32/20
f 82/18/43 26/18/43 85/18/43 86/18/43
f 26/10/46 6/32/46 83/32/46 85/10/46
f 89/13/1 88/20/1 87/21/1 90/14/1
f 23/13/47 9/20/47 88/20/47 89/13/47
f 28/14/37 23/13/37 89/13/37 90/14/37
f 9/20/27 7/21/27 87/21/27 88/20/27
f 95/1/1 92/18/1 93/26/1 96/2/1
f 94/28/1 91/30/1 98/18/1 97/6/1
f 14/28/21 2/30/21 91/30/21 94/28/21
f 22/2/29 17/1/29 95/1/29 96/2/29
f 13/26/48 22/2/48 96/2/48 93/26/48
f 2/30/49 81/18/49 98/18/49 91/30/49
f 32/6/50 14/28/50 94/28/50 97/6/50
f 4/18/21 13/26/21 93/26/21 92/18/21
l 20 81
l 82 25
